# xmcd
#
# Track frame offsets: 
#        150
#        13913
#        27941
#        43772
#        58540
#        73764
#        91934
#        108264
#        122109
#        136910
#        148798
#        164161
#        183136
#
# Disc length: 2605 seconds
#
# Revision: 3
# Processed by: cddbd v1.5.2PL0 Copyright (c) Steve Scherf et al.
# Submitted via: ExactAudioCopy v1.0b2
#
DISCID=b90a2b0d
DTITLE=Maria Gadú - Maria Gadú
DYEAR=2009
DGENRE=Softcore
TTITLE0=Bela Flor
TTITLE1=Altar Particular
TTITLE2=Dona Cila
TTITLE3=Shimbalaiê
TTITLE4=Escudos
TTITLE5=Ne Me Quitte Pas
TTITLE6=Tudo Diferente
TTITLE7=Laranja (Part. Esp.: Leandro Léo)
TTITLE8=Lounge
TTITLE9=Linda Rosa
TTITLE10=Encontro
TTITLE11=A História De Lily Braun
TTITLE12=Baba
EXTD=YEAR: 2009
EXTT0=
EXTT1=
EXTT2=
EXTT3=
EXTT4=
EXTT5=
EXTT6=
EXTT7=
EXTT8=
EXTT9=
EXTT10=
EXTT11=
EXTT12=
PLAYORDER=
